<?xml version="1.0" encoding="UTF-8" standalone="no"?>
<!-- Created with Inkscape (http://www.inkscape.org/) -->

<svg
   xmlns:dc="http://purl.org/dc/elements/1.1/"
   xmlns:cc="http://creativecommons.org/ns#"
   xmlns:rdf="http://www.w3.org/1999/02/22-rdf-syntax-ns#"
   xmlns:svg="http://www.w3.org/2000/svg"
   xmlns="http://www.w3.org/2000/svg"
   xmlns:sodipodi="http://sodipodi.sourceforge.net/DTD/sodipodi-0.dtd"
   xmlns:inkscape="http://www.inkscape.org/namespaces/inkscape"
   width="48"
   height="48"
   id="svg4325"
   version="1.1"
   inkscape:version="0.48.2 r9819"
   sodipodi:docname="strategy_canvas_logo.svg"
   inkscape:export-filename="C:\Users\Boris\SkyDrive\strategy_canvas_logo.png"
   inkscape:export-xdpi="30"
   inkscape:export-ydpi="30">
  <defs
     id="defs4327" />
  <sodipodi:namedview
     id="base"
     pagecolor="#ffffff"
     bordercolor="#666666"
     borderopacity="1.0"
     inkscape:pageopacity="0.0"
     inkscape:pageshadow="2"
     inkscape:zoom="2"
     inkscape:cx="140.589"
     inkscape:cy="-4.910202"
     inkscape:document-units="px"
     inkscape:current-layer="layer1"
     showgrid="false"
     inkscape:window-width="1387"
     inkscape:window-height="822"
     inkscape:window-x="2212"
     inkscape:window-y="224"
     inkscape:window-maximized="0" />
  <metadata
     id="metadata4330">
    <rdf:RDF>
      <cc:Work
         rdf:about="">
        <dc:format>image/svg+xml</dc:format>
        <dc:type
           rdf:resource="http://purl.org/dc/dcmitype/StillImage" />
        <dc:title></dc:title>
      </cc:Work>
    </rdf:RDF>
  </metadata>
  <g
     inkscape:label="Layer 1"
     inkscape:groupmode="layer"
     id="layer1"
     transform="translate(0,-1004.3622)">
    <rect
       y="1006.3161"
       x="16.96158"
       height="44.928761"
       width="14"
       id="rect5141"
       style="fill:#e5f3ff;fill-opacity:1;stroke:none" />
    <rect
       style="fill:#ffffff;fill-opacity:1;stroke:none"
       id="rect5143"
       width="14"
       height="44.928761"
       x="30.976732"
       y="1005.9373" />
    <rect
       style="fill:#ffffff;fill-opacity:1;stroke:none"
       id="rect5139"
       width="14"
       height="44.928761"
       x="2.9464283"
       y="1006.1267" />
    <rect
       style="fill:none;stroke:#adc8e3;stroke-width:2.93398547000000010;stroke-linecap:round;stroke-linejoin:miter;stroke-miterlimit:4;stroke-dasharray:none;stroke-opacity:1"
       id="rect5137"
       width="45.066013"
       height="45.066017"
       x="1.4669927"
       y="1005.8292" />
    <path
       sodipodi:type="arc"
       style="fill:#ff0000"
       id="path4337"
       sodipodi:cx="9.3439112"
       sodipodi:cy="13.528544"
       sodipodi:rx="4.6719556"
       sodipodi:ry="4.6719556"
       d="m 14.015867,13.528544 c 0,2.58025 -2.091706,4.671956 -4.6719558,4.671956 -2.5802499,0 -4.6719556,-2.091706 -4.6719556,-4.671956 0,-2.580249 2.0917057,-4.6719552 4.6719556,-4.6719552 2.5802498,0 4.6719558,2.0917062 4.6719558,4.6719552 z"
       transform="matrix(0.75254055,0,0,0.75254055,1.3278162,1032.9085)" />
    <path
       transform="matrix(0.75254055,0,0,0.75254055,16.767298,1027.8101)"
       d="m 14.015867,13.528544 c 0,2.58025 -2.091706,4.671956 -4.6719558,4.671956 -2.5802499,0 -4.6719556,-2.091706 -4.6719556,-4.671956 0,-2.580249 2.0917057,-4.6719552 4.6719556,-4.6719552 2.5802498,0 4.6719558,2.0917062 4.6719558,4.6719552 z"
       sodipodi:ry="4.6719556"
       sodipodi:rx="4.6719556"
       sodipodi:cy="13.528544"
       sodipodi:cx="9.3439112"
       id="path4339"
       style="fill:#ff0000"
       sodipodi:type="arc" />
    <path
       sodipodi:type="arc"
       style="fill:#ff0000"
       id="path4341"
       sodipodi:cx="9.3439112"
       sodipodi:cy="13.528544"
       sodipodi:rx="4.6719556"
       sodipodi:ry="4.6719556"
       d="m 14.015867,13.528544 c 0,2.58025 -2.091706,4.671956 -4.6719558,4.671956 -2.5802499,0 -4.6719556,-2.091706 -4.6719556,-4.671956 0,-2.580249 2.0917057,-4.6719552 4.6719556,-4.6719552 2.5802498,0 4.6719558,2.0917062 4.6719558,4.6719552 z"
       transform="matrix(0.75254055,0,0,0.75254055,32.523392,1003.2763)" />
    <path
       style="fill:#ff0000;stroke:#ff0000;stroke-width:3;stroke-linecap:square;stroke-linejoin:miter;stroke-miterlimit:4;stroke-opacity:1;stroke-dasharray:none"
       d="m 11.698914,37.624339 8.76063,-2.892921"
       id="path4345"
       inkscape:connector-type="polyline"
       inkscape:connector-curvature="0"
       transform="translate(0,1004.3622)"
       inkscape:connection-end-point="d4"
       inkscape:connection-end="#path4339"
       inkscape:connection-start-point="d4"
       inkscape:connection-start="#path4337" />
    <path
       style="fill:none;stroke:#ff0000;stroke-width:3;stroke-linecap:round;stroke-linejoin:miter;stroke-miterlimit:4;stroke-opacity:1;stroke-dasharray:none"
       d="M 25.699082,30.670015 37.654952,12.053541"
       id="path5117"
       inkscape:connector-type="polyline"
       inkscape:connector-curvature="0"
       transform="translate(0,1004.3622)"
       inkscape:connection-end-point="d4"
       inkscape:connection-end="#path4341"
       inkscape:connection-start-point="d4"
       inkscape:connection-start="#path4339" />
    <path
       transform="matrix(0.75254055,0,0,0.75254055,0.7397105,1018.6384)"
       d="m 14.015867,13.528544 c 0,2.58025 -2.091706,4.671956 -4.6719558,4.671956 -2.5802499,0 -4.6719556,-2.091706 -4.6719556,-4.671956 0,-2.580249 2.0917057,-4.6719552 4.6719556,-4.6719552 2.5802498,0 4.6719558,2.0917062 4.6719558,4.6719552 z"
       sodipodi:ry="4.6719556"
       sodipodi:rx="4.6719556"
       sodipodi:cy="13.528544"
       sodipodi:cx="9.3439112"
       id="path5119"
       style="fill:#0000ff"
       sodipodi:type="arc" />
    <path
       sodipodi:type="arc"
       style="fill:#0000ff"
       id="path5121"
       sodipodi:cx="9.3439112"
       sodipodi:cy="13.528544"
       sodipodi:rx="4.6719556"
       sodipodi:ry="4.6719556"
       d="m 14.015867,13.528544 c 0,2.58025 -2.091706,4.671956 -4.6719558,4.671956 -2.5802499,0 -4.6719556,-2.091706 -4.6719556,-4.671956 0,-2.580249 2.0917057,-4.6719552 4.6719556,-4.6719552 2.5802498,0 4.6719558,2.0917062 4.6719558,4.6719552 z"
       transform="matrix(0.75254055,0,0,0.75254055,16.732224,1009.1719)" />
    <path
       transform="matrix(0.75254055,0,0,0.75254055,32.343067,1023.8686)"
       d="m 14.015867,13.528544 c 0,2.58025 -2.091706,4.671956 -4.6719558,4.671956 -2.5802499,0 -4.6719556,-2.091706 -4.6719556,-4.671956 0,-2.580249 2.0917057,-4.6719552 4.6719556,-4.6719552 2.5802498,0 4.6719558,2.0917062 4.6719558,4.6719552 z"
       sodipodi:ry="4.6719556"
       sodipodi:rx="4.6719556"
       sodipodi:cy="13.528544"
       sodipodi:cx="9.3439112"
       id="path5123"
       style="fill:#0000ff"
       sodipodi:type="arc" />
    <path
       style="opacity:0.98999999;fill:none;stroke:#0000ff;stroke-width:3;stroke-linecap:round;stroke-linejoin:miter;stroke-miterlimit:4;stroke-opacity:1;stroke-dasharray:none"
       d="m 10.797374,22.665793 9.940531,-5.88413"
       id="path5131"
       inkscape:connector-type="polyline"
       inkscape:connector-curvature="0"
       inkscape:connection-start="#path5119"
       inkscape:connection-start-point="d4"
       inkscape:connection-end="#path5121"
       inkscape:connection-end-point="d4"
       transform="translate(0,1004.3622)" />
    <path
       style="fill:none;stroke:#0000ff;stroke-width:3;stroke-linecap:round;stroke-linejoin:miter;stroke-miterlimit:4;stroke-opacity:1;stroke-dasharray:none"
       d="m 26.323796,17.400475 10.491043,9.876706"
       id="path5135"
       inkscape:connector-type="polyline"
       inkscape:connector-curvature="0"
       transform="translate(0,1004.3622)"
       inkscape:connection-end-point="d4"
       inkscape:connection-end="#path5123"
       inkscape:connection-start-point="d4"
       inkscape:connection-start="#path5121" />
  </g>
</svg>
